<svg width="115" height="77" viewBox="0 0 115 77" fill="none" xmlns="http://www.w3.org/2000/svg">
<path d="M0.940382 4.23825C3.01878 0.339354 7.86434 -1.13645 11.7632 0.941948C15.6621 3.02035 17.138 7.86591 15.0596 11.7648C12.9812 15.6637 8.13559 17.1395 4.23669 15.0611C0.337787 12.9827 -1.13802 8.13716 0.940382 4.23825ZM114.149 62.9079C114.811 63.4067 114.943 64.3473 114.444 65.0087L106.315 75.787C105.816 76.4484 104.875 76.5802 104.214 76.0813C103.553 75.5825 103.421 74.6419 103.92 73.9805L111.145 64.3998L101.565 57.1742C100.903 56.6753 100.771 55.7348 101.27 55.0734C101.769 54.412 102.71 54.2802 103.371 54.779L114.149 62.9079ZM7.99997 8.00153L9.33779 7.32313C9.7947 8.22416 10.2504 9.11324 10.7052 9.99045L9.3735 10.6808L8.04181 11.3712C7.58277 10.4857 7.12295 9.58865 6.66215 8.67994L7.99997 8.00153ZM12.1726 15.9507L13.4898 15.2329C14.4567 17.0074 15.4212 18.7281 16.3854 20.396L15.0868 21.1468L13.7881 21.8975C12.8104 20.2061 11.8336 18.4633 10.8555 16.6684L12.1726 15.9507ZM18.1611 26.2859L19.4358 25.4953C20.5027 27.2157 21.5718 28.8725 22.646 30.4671L21.4019 31.3052L20.1579 32.1432C19.0611 30.5151 17.9715 28.8264 16.8863 27.0764L18.1611 26.2859ZM24.8401 36.1727L26.0445 35.2785C27.2481 36.8997 28.4614 38.4461 29.6883 39.9196L28.5356 40.8794L27.3829 41.8392C26.1179 40.32 24.8703 38.7296 23.6358 37.0668L24.8401 36.1727ZM32.4975 45.3368L33.5839 44.3026C34.9601 45.7482 36.3573 47.1091 37.7804 48.3876L36.778 49.5034L35.7756 50.6193C34.2912 49.2858 32.8382 47.8702 31.411 46.371L32.4975 45.3368ZM41.3898 53.2966L42.2893 52.0962C43.8583 53.2718 45.4632 54.3589 47.1103 55.3602L46.3311 56.6419L45.5519 57.9237C43.8202 56.8709 42.135 55.7294 40.4903 54.497L41.3898 53.2966ZM51.582 59.4841L52.2289 58.1307C53.9662 58.9612 55.7536 59.7096 57.5976 60.3781L57.0863 61.7883L56.5751 63.1985C54.6403 62.497 52.7623 61.7108 50.9351 60.8374L51.582 59.4841ZM62.7845 63.5605L63.1654 62.1097C65.0144 62.5952 66.9204 63.0119 68.8889 63.3613L68.6268 64.8382L68.3646 66.3151C66.32 65.9522 64.3346 65.5184 62.4035 65.0114L62.7845 63.5605ZM74.5276 65.6694L74.6864 64.1779C76.5884 64.3804 78.5462 64.5286 80.5642 64.6237L80.4936 66.122L80.423 67.6204C78.3498 67.5227 76.333 67.3702 74.3688 67.161L74.5276 65.6694ZM86.45 66.2518L86.447 64.7518C88.3674 64.748 90.3391 64.702 92.3651 64.6149L92.4295 66.1135L92.4939 67.6121C90.4298 67.7009 88.417 67.7479 86.453 67.7518L86.45 66.2518ZM98.3973 65.752L98.2819 64.2564C100.2 64.1085 102.163 63.9279 104.175 63.7155L104.332 65.2072L104.49 66.6989C102.452 66.9141 100.46 67.0973 98.5127 67.2475L98.3973 65.752ZM110.259 64.5084L110.067 63.0208C111.046 62.8939 112.037 62.7603 113.038 62.62L113.246 64.1055L113.454 65.591C112.443 65.7327 111.442 65.8677 110.452 65.9959L110.259 64.5084Z" fill="white"/>
</svg>
